<svg width="52" height="49" viewBox="0 0 52 49" fill="none" xmlns="http://www.w3.org/2000/svg">
  <path d="M18.2598 15.8864H4L12.239 37.9015H42.3431L48.6808 15.8864H18.2598ZM18.2598 15.8864V2" stroke="#E98B8B" stroke-width="5"/>
  <path d="M37.5898 3.35477H17.9429" stroke="#E98B8B" stroke-width="5"/>
  <path d="M36.9561 15.8864V2" stroke="#E98B8B" stroke-width="5"/>
  <mask id="path-4-inside-1_8_3" fill="white">
    <ellipse cx="18.8936" cy="42.9819" rx="4.75328" ry="5.0804"/>
  </mask>
  <path d="M18.6469 42.9819C18.6469 43.1109 18.6007 43.1612 18.6036 43.1582C18.6059 43.1557 18.6292 43.1318 18.6841 43.1069C18.7437 43.08 18.8191 43.0623 18.8936 43.0623V53.0623C24.5884 53.0623 28.6469 48.2304 28.6469 42.9819H18.6469ZM18.8936 43.0623C18.9681 43.0623 19.0435 43.08 19.1031 43.1069C19.158 43.1318 19.1813 43.1557 19.1836 43.1582C19.1865 43.1612 19.1403 43.1109 19.1403 42.9819H9.14032C9.14032 48.2304 13.1988 53.0623 18.8936 53.0623V43.0623ZM19.1403 42.9819C19.1403 42.8529 19.1865 42.8025 19.1836 42.8055C19.1813 42.8081 19.158 42.8319 19.1031 42.8568C19.0435 42.8837 18.9681 42.9015 18.8936 42.9015V32.9015C13.1988 32.9015 9.14032 37.7333 9.14032 42.9819H19.1403ZM18.8936 42.9015C18.8191 42.9015 18.7437 42.8837 18.6841 42.8568C18.6292 42.8319 18.6059 42.8081 18.6036 42.8055C18.6007 42.8025 18.6469 42.8529 18.6469 42.9819H28.6469C28.6469 37.7333 24.5884 32.9015 18.8936 32.9015V42.9015Z" fill="#E98B8B" mask="url(#path-4-inside-1_8_3)"/>
  <mask id="path-6-inside-2_8_3" fill="white">
    <ellipse cx="34.7379" cy="42.9819" rx="4.75328" ry="5.0804"/>
  </mask>
  <path d="M34.4912 42.9819C34.4912 43.1109 34.445 43.1612 34.4479 43.1582C34.4502 43.1557 34.4735 43.1318 34.5284 43.1069C34.588 43.08 34.6634 43.0623 34.7379 43.0623V53.0623C40.4327 53.0623 44.4912 48.2304 44.4912 42.9819H34.4912ZM34.7379 43.0623C34.8124 43.0623 34.8878 43.08 34.9474 43.1069C35.0023 43.1318 35.0256 43.1557 35.0279 43.1582C35.0308 43.1612 34.9846 43.1109 34.9846 42.9819H24.9846C24.9846 48.2304 29.0431 53.0623 34.7379 53.0623V43.0623ZM34.9846 42.9819C34.9846 42.8529 35.0308 42.8025 35.0279 42.8055C35.0256 42.8081 35.0023 42.8319 34.9474 42.8568C34.8878 42.8837 34.8124 42.9015 34.7379 42.9015V32.9015C29.0431 32.9015 24.9846 37.7333 24.9846 42.9819H34.9846ZM34.7379 42.9015C34.6634 42.9015 34.588 42.8837 34.5284 42.8568C34.4735 42.8319 34.4502 42.8081 34.4479 42.8055C34.445 42.8025 34.4912 42.8529 34.4912 42.9819H44.4912C44.4912 37.7333 40.4327 32.9015 34.7379 32.9015V42.9015Z" fill="#E98B8B" mask="url(#path-6-inside-2_8_3)"/>
  <path d="M9.28608 30.08L45.0111 30.1616M16.015 15.4299L22.522 36.9313M6.53511 23.3404L46.7795 23.3404" stroke="#E98B8B" stroke-width="5"/>
  <path d="M38.8574 16.9025L32.8365 37.5628" stroke="#E98B8B" stroke-width="5"/>
</svg>